<svg width="128" height="128" viewBox="0 0 128 128" fill="none" xmlns="http://www.w3.org/2000/svg">
  <!-- Background Circle with Gradient -->
  <circle cx="64" cy="64" r="64" fill="url(#gradient)"/>

  <!-- Star Icon (representing rewards) -->
  <path d="M64 20L71.18 46.82L98 54L71.18 61.18L64 88L56.82 61.18L30 54L56.82 46.82L64 20Z" fill="#FFD700" stroke="#FFA500" stroke-width="2"/>

  <!-- GitHub-style Icon (representing open source) -->
  <path d="M64 95C81.673 95 96 80.673 96 63C96 45.327 81.673 31 64 31C46.327 31 32 45.327 32 63C32 75.253 39.255 85.776 49.59 90.632C50.99 90.904 51.51 90.054 51.51 89.318C51.51 88.657 51.485 86.654 51.473 84.53C43.65 86.267 42.006 81.197 42.006 81.197C40.735 78.007 38.886 77.163 38.886 77.163C36.324 75.383 39.073 75.417 39.073 75.417C41.903 75.616 43.378 78.332 43.378 78.332C45.898 82.631 50.069 81.386 51.563 80.676C51.823 78.857 52.523 77.616 53.297 76.922C47.247 76.22 40.893 73.967 40.893 62.88C40.893 59.841 41.975 57.359 43.433 55.41C43.143 54.71 42.205 51.997 43.707 48.372C43.707 48.372 46.081 47.618 51.447 51.219C53.698 50.596 56.112 50.284 58.516 50.274C60.92 50.284 63.336 50.596 65.591 51.219C70.953 47.618 73.323 48.372 73.323 48.372C74.829 51.997 73.891 54.71 73.601 55.41C75.063 57.359 76.137 59.841 76.137 62.88C76.137 73.991 69.773 76.213 63.706 76.901C64.675 77.743 65.556 79.405 65.556 81.936C65.556 85.586 65.524 88.524 65.524 89.318C65.524 90.058 66.035 90.916 67.456 90.629C77.777 85.768 85.016 75.249 85.016 63C85.016 45.327 70.689 31 53.016 31" fill="white" fill-opacity="0.9"/>

  <!-- Coin Icon (representing tokens) -->
  <circle cx="90" cy="38" r="14" fill="#FFA500" stroke="#FF8C00" stroke-width="2"/>
  <text x="90" y="43" font-family="Arial, sans-serif" font-size="16" font-weight="bold" fill="white" text-anchor="middle">$</text>

  <!-- Gradient Definition -->
  <defs>
    <linearGradient id="gradient" x1="0%" y1="0%" x2="100%" y2="100%">
      <stop offset="0%" style="stop-color:#667eea;stop-opacity:1" />
      <stop offset="100%" style="stop-color:#764ba2;stop-opacity:1" />
    </linearGradient>
  </defs>
</svg>
